<?xml version="1.0" encoding="utf-8"?>
<!-- Svg Vector Icons : http://www.onlinewebfonts.com/icon -->
<!DOCTYPE svg PUBLIC "-//W3C//DTD SVG 1.1//EN" "http://www.w3.org/Graphics/SVG/1.1/DTD/svg11.dtd">
<svg version="1.1" xmlns="http://www.w3.org/2000/svg" xmlns:xlink="http://www.w3.org/1999/xlink" x="0px" y="0px" viewBox="0 0 1000 1000" enable-background="new 0 0 1000 1000" xml:space="preserve">
<metadata> Svg Vector Icons : http://www.onlinewebfonts.com/icon </metadata>
<g><g transform="translate(0.000000,511.000000) scale(0.100000,-0.100000)"><path d="M100,110v-4900h4900h4900V110v4900H5000H100V110z M9538.6,110v-4538.6H5000H461.4V110v4538.6H5000h4538.6V110z"/><path d="M8454.4,3564.4v-361.4h-361.4h-361.4l-4.3-365.6l-6.4-367.8l-365.7-6.4l-367.8-4.3v-361.4v-361.4h-361.4h-361.4v-361.4v-361.4h-361.4h-361.4V652.1V290.7h-361.4h-361.4V-70.7v-361.4h-361.4h-361.4v-361.4v-361.4h-361.4h-361.4v-361.4v-361.4h-361.4H2651V-2239v-361.4l-367.8-4.3l-365.6-6.4l-6.4-365.6l-4.3-367.8h-361.4h-361.4l4.3-357.1l6.4-355l357.1-6.4l355-4.3v361.4v361.4h372h372v-361.4v-361.4h361.4h361.4v361.4v361.4h361.4h361.4v-361.4v-361.4h361.4h361.4v361.4v361.4h361.4h361.4v-361.4v-361.4h361.4h361.4v361.4v361.4h361.4h361.4l4.3-355l6.4-357.1h361.4H7721l6.4,357.1l4.3,355h361.4h361.4v-361.4v-361.4h361.4h361.4v361.4v361.4h-361.4h-361.4v372v372h361.4h361.4v361.4v361.4h-361.4h-361.4v361.4v361.4h361.4h361.4v361.4v361.4h-361.4h-361.4v361.4v361.4h361.4h361.4v361.4v361.4h-361.4h-361.4v361.4v361.4h361.4h361.4v361.4V2459h-361.4h-361.4v372v372h361.4h361.4v361.4v361.4h-361.4h-361.4V3564.4z M8454.4,2097.6v-361.4h-361.4h-361.4v-361.4v-361.4h361.4h361.4V652.1V290.7h-361.4h-361.4V-70.7v-361.4h361.4h361.4v-361.4v-361.4h-361.4h-361.4v-361.4v-361.4h361.4h361.4V-2239v-361.4h-361.4h-361.4v361.4v361.4h-372h-372V-2239v-361.4l367.8-4.3l365.7-6.4v-361.4v-361.4l-365.7-6.4l-367.8-4.2v372v372h-361.4h-361.4v-372v-372h-361.4h-361.4v372v372h-361.4h-361.4v-372v-372h-361.4h-361.4v372v372h-361.4h-361.4v-372v-372h-361.4H2651v372v372h361.4h361.4v361.4v361.4h361.4h361.4v361.4v361.4h361.4h361.4v361.4v361.4h361.4h361.4v361.4v361.4h361.4h361.4v361.4v361.4h361.4h361.4v361.4v361.4h372h372v361.4V2459h361.4h361.4V2097.6z"/><path d="M6987.6,652.1V290.7h-361.4h-361.4V-70.7v-361.4h-361.4h-361.4v-361.4v-361.4h-361.4h-361.4v-361.4v-361.4h-361.4h-361.4V-2239v-361.4h361.4h361.4v361.4v361.4h361.4h361.4V-2239v-361.4h361.4h361.4v361.4v361.4h361.4h361.4v361.4v361.4h372h372v361.4v361.4h-372h-372v361.4v361.4h372h372v361.4v361.4h-372h-372V652.1z M6987.6-793.5v-361.4h-361.4h-361.4v-361.4v-361.4h-361.4h-361.4v361.4v361.4h361.4h361.4v361.4v361.4h361.4h361.4V-793.5z"/></g></g>
</svg>